<svg width="266" height="46" viewBox="0 0 266 46" fill="none" xmlns="http://www.w3.org/2000/svg">
<g filter="url(#filter0_d_28_280)">
<path d="M22.5 31.125C22.9533 31.125 23.3333 30.9693 23.64 30.6578C23.9467 30.3464 24.1 29.9604 24.1 29.5C24.1 29.0396 23.9467 28.6536 23.64 28.3422C23.3333 28.0307 22.9533 27.875 22.5 27.875C22.0467 27.875 21.6667 28.0307 21.36 28.3422C21.0533 28.6536 20.9 29.0396 20.9 29.5C20.9 29.9604 21.0533 30.3464 21.36 30.6578C21.6667 30.9693 22.0467 31.125 22.5 31.125ZM22.5 24.625C22.9533 24.625 23.3333 24.4693 23.64 24.1578C23.9467 23.8464 24.1 23.4604 24.1 23C24.1 22.5396 23.9467 22.1536 23.64 21.8422C23.3333 21.5307 22.9533 21.375 22.5 21.375C22.0467 21.375 21.6667 21.5307 21.36 21.8422C21.0533 22.1536 20.9 22.5396 20.9 23C20.9 23.4604 21.0533 23.8464 21.36 24.1578C21.6667 24.4693 22.0467 24.625 22.5 24.625ZM22.5 18.125C22.9533 18.125 23.3333 17.9693 23.64 17.6578C23.9467 17.3464 24.1 16.9604 24.1 16.5C24.1 16.0396 23.9467 15.6536 23.64 15.3422C23.3333 15.0307 22.9533 14.875 22.5 14.875C22.0467 14.875 21.6667 15.0307 21.36 15.3422C21.0533 15.6536 20.9 16.0396 20.9 16.5C20.9 16.9604 21.0533 17.3464 21.36 17.6578C21.6667 17.9693 22.0467 18.125 22.5 18.125ZM35.3 36H9.7C8.82 36 8.06667 35.6818 7.44 35.0453C6.81333 34.4089 6.5 33.6437 6.5 32.75V26.25C7.38 26.25 8.13333 25.9318 8.76 25.2953C9.38667 24.6589 9.7 23.8938 9.7 23C9.7 22.1062 9.38667 21.3411 8.76 20.7047C8.13333 20.0682 7.38 19.75 6.5 19.75V13.25C6.5 12.3563 6.81333 11.5911 7.44 10.9547C8.06667 10.3182 8.82 10 9.7 10H35.3C36.18 10 36.9333 10.3182 37.56 10.9547C38.1867 11.5911 38.5 12.3563 38.5 13.25V19.75C37.62 19.75 36.8667 20.0682 36.24 20.7047C35.6133 21.3411 35.3 22.1062 35.3 23C35.3 23.8938 35.6133 24.6589 36.24 25.2953C36.8667 25.9318 37.62 26.25 38.5 26.25V32.75C38.5 33.6437 38.1867 34.4089 37.56 35.0453C36.9333 35.6818 36.18 36 35.3 36Z" fill="white"/>
</g>
<path d="M63.228 35.216C61.26 35.216 59.592 34.82 58.224 34.028C56.856 33.212 55.812 32.072 55.092 30.608C54.396 29.144 54.048 27.452 54.048 25.532C54.048 23.588 54.408 21.896 55.128 20.456C55.848 18.992 56.892 17.852 58.26 17.036C59.628 16.196 61.296 15.776 63.264 15.776C65.232 15.776 66.9 16.196 68.268 17.036C69.636 17.852 70.668 18.992 71.364 20.456C72.06 21.92 72.408 23.624 72.408 25.568C72.408 27.464 72.048 29.144 71.328 30.608C70.632 32.072 69.6 33.212 68.232 34.028C66.888 34.82 65.22 35.216 63.228 35.216ZM63.228 31.904C64.524 31.904 65.568 31.616 66.36 31.04C67.176 30.464 67.776 29.696 68.16 28.736C68.544 27.752 68.736 26.684 68.736 25.532C68.736 24.38 68.544 23.324 68.16 22.364C67.776 21.404 67.176 20.636 66.36 20.06C65.568 19.46 64.524 19.16 63.228 19.16C61.956 19.16 60.912 19.46 60.096 20.06C59.28 20.636 58.68 21.404 58.296 22.364C57.936 23.324 57.756 24.38 57.756 25.532C57.756 26.708 57.936 27.776 58.296 28.736C58.68 29.696 59.28 30.464 60.096 31.04C60.912 31.616 61.956 31.904 63.228 31.904ZM75.8533 41.912V16.028H79.3813L79.5613 18.728C80.2333 17.744 81.1093 17.012 82.1893 16.532C83.2693 16.028 84.4453 15.776 85.7173 15.776C87.6133 15.776 89.1733 16.208 90.3973 17.072C91.6213 17.912 92.5333 19.076 93.1333 20.564C93.7333 22.028 94.0333 23.672 94.0333 25.496C94.0333 27.368 93.7213 29.036 93.0973 30.5C92.4973 31.964 91.5613 33.116 90.2893 33.956C89.0413 34.796 87.4573 35.216 85.5373 35.216C84.6253 35.216 83.7853 35.12 83.0173 34.928C82.2733 34.736 81.6133 34.46 81.0373 34.1C80.4853 33.716 79.9933 33.272 79.5613 32.768V41.912H75.8533ZM85.0693 31.904C86.3653 31.904 87.3973 31.616 88.1653 31.04C88.9333 30.44 89.4853 29.66 89.8213 28.7C90.1573 27.74 90.3253 26.696 90.3253 25.568C90.3253 24.392 90.1453 23.324 89.7853 22.364C89.4493 21.38 88.8853 20.6 88.0933 20.024C87.3253 19.424 86.2933 19.124 84.9973 19.124C83.8213 19.124 82.8253 19.424 82.0093 20.024C81.1933 20.6 80.5693 21.38 80.1373 22.364C79.7293 23.348 79.5253 24.416 79.5253 25.568C79.5253 26.744 79.7173 27.824 80.1013 28.808C80.5093 29.768 81.1213 30.524 81.9373 31.076C82.7773 31.628 83.8213 31.904 85.0693 31.904ZM105.853 35.216C103.861 35.216 102.193 34.808 100.849 33.992C99.5051 33.176 98.4851 32.048 97.7891 30.608C97.1171 29.144 96.7811 27.464 96.7811 25.568C96.7811 23.648 97.1291 21.956 97.8251 20.492C98.5451 19.028 99.5771 17.876 100.921 17.036C102.289 16.196 103.933 15.776 105.853 15.776C107.317 15.776 108.589 16.052 109.669 16.604C110.749 17.132 111.637 17.852 112.333 18.764C113.053 19.676 113.581 20.696 113.917 21.824C114.253 22.928 114.397 24.08 114.349 25.28C114.349 25.544 114.337 25.796 114.313 26.036C114.289 26.276 114.265 26.528 114.241 26.792H100.525C100.597 27.752 100.837 28.628 101.245 29.42C101.677 30.212 102.277 30.848 103.045 31.328C103.813 31.784 104.761 32.012 105.889 32.012C106.513 32.012 107.113 31.94 107.689 31.796C108.289 31.628 108.817 31.376 109.273 31.04C109.753 30.68 110.089 30.224 110.281 29.672H114.025C113.713 30.944 113.149 32 112.333 32.84C111.541 33.656 110.569 34.256 109.417 34.64C108.289 35.024 107.101 35.216 105.853 35.216ZM100.597 23.84H110.677C110.653 22.904 110.437 22.076 110.029 21.356C109.621 20.612 109.057 20.036 108.337 19.628C107.617 19.196 106.753 18.98 105.745 18.98C104.641 18.98 103.717 19.208 102.973 19.664C102.253 20.12 101.689 20.72 101.281 21.464C100.897 22.184 100.669 22.976 100.597 23.84ZM117.813 35V16.028H121.341L121.521 18.692C122.001 17.996 122.577 17.444 123.249 17.036C123.921 16.604 124.641 16.292 125.409 16.1C126.177 15.884 126.921 15.776 127.641 15.776C129.465 15.776 130.893 16.172 131.925 16.964C132.981 17.732 133.725 18.776 134.157 20.096C134.613 21.392 134.841 22.868 134.841 24.524V35H131.097V25.28C131.097 24.512 131.049 23.756 130.953 23.012C130.857 22.268 130.653 21.608 130.341 21.032C130.053 20.432 129.633 19.964 129.081 19.628C128.529 19.268 127.785 19.088 126.849 19.088C125.697 19.088 124.725 19.4 123.933 20.024C123.141 20.648 122.541 21.488 122.133 22.544C121.725 23.6 121.521 24.788 121.521 26.108V35H117.813ZM136.378 41.156V37.844H153.334V41.156H136.378ZM162.983 35C161.495 35 160.283 34.796 159.347 34.388C158.411 33.956 157.715 33.284 157.259 32.372C156.827 31.46 156.611 30.272 156.611 28.808V19.34H153.623V16.028H156.611V10.556H160.319V16.028H165.107V19.34H160.319V28.34C160.319 29.468 160.523 30.32 160.931 30.896C161.339 31.448 162.191 31.724 163.487 31.724H164.963V35H162.983ZM167.92 35V16.028H171.628V35H167.92ZM169.756 13.508C169.036 13.508 168.448 13.292 167.992 12.86C167.56 12.404 167.344 11.828 167.344 11.132C167.344 10.436 167.572 9.872 168.028 9.44C168.484 8.984 169.06 8.756 169.756 8.756C170.404 8.756 170.968 8.984 171.448 9.44C171.952 9.872 172.204 10.436 172.204 11.132C172.204 11.828 171.964 12.404 171.484 12.86C171.028 13.292 170.452 13.508 169.756 13.508ZM184.101 35.216C182.109 35.216 180.441 34.808 179.097 33.992C177.777 33.176 176.781 32.048 176.109 30.608C175.461 29.144 175.137 27.464 175.137 25.568C175.137 23.696 175.473 22.028 176.145 20.564C176.841 19.076 177.873 17.912 179.241 17.072C180.633 16.208 182.349 15.776 184.389 15.776C185.781 15.776 187.017 16.016 188.097 16.496C189.177 16.952 190.053 17.636 190.725 18.548C191.421 19.436 191.877 20.552 192.093 21.896H188.385C188.073 20.912 187.545 20.204 186.801 19.772C186.081 19.34 185.229 19.124 184.245 19.124C182.925 19.124 181.869 19.436 181.077 20.06C180.309 20.684 179.745 21.488 179.385 22.472C179.025 23.456 178.845 24.488 178.845 25.568C178.845 26.696 179.025 27.74 179.385 28.7C179.769 29.66 180.345 30.44 181.113 31.04C181.905 31.616 182.937 31.904 184.209 31.904C185.169 31.904 186.057 31.7 186.873 31.292C187.689 30.86 188.217 30.14 188.457 29.132H192.273C192.057 30.524 191.553 31.676 190.761 32.588C189.969 33.476 188.985 34.136 187.809 34.568C186.657 35 185.421 35.216 184.101 35.216ZM195.501 35V9.548H199.209V23.912H202.269L207.597 16.028H211.773L205.545 25.064L212.313 35H207.957L202.557 27.188H199.209V35H195.501ZM222.689 35.216C220.697 35.216 219.029 34.808 217.685 33.992C216.341 33.176 215.321 32.048 214.625 30.608C213.953 29.144 213.617 27.464 213.617 25.568C213.617 23.648 213.965 21.956 214.661 20.492C215.381 19.028 216.413 17.876 217.757 17.036C219.125 16.196 220.769 15.776 222.689 15.776C224.153 15.776 225.425 16.052 226.505 16.604C227.585 17.132 228.473 17.852 229.169 18.764C229.889 19.676 230.417 20.696 230.753 21.824C231.089 22.928 231.233 24.08 231.185 25.28C231.185 25.544 231.173 25.796 231.149 26.036C231.125 26.276 231.101 26.528 231.077 26.792H217.361C217.433 27.752 217.673 28.628 218.081 29.42C218.513 30.212 219.113 30.848 219.881 31.328C220.649 31.784 221.597 32.012 222.725 32.012C223.349 32.012 223.949 31.94 224.525 31.796C225.125 31.628 225.653 31.376 226.109 31.04C226.589 30.68 226.925 30.224 227.117 29.672H230.861C230.549 30.944 229.985 32 229.169 32.84C228.377 33.656 227.405 34.256 226.253 34.64C225.125 35.024 223.937 35.216 222.689 35.216ZM217.433 23.84H227.513C227.489 22.904 227.273 22.076 226.865 21.356C226.457 20.612 225.893 20.036 225.173 19.628C224.453 19.196 223.589 18.98 222.581 18.98C221.477 18.98 220.553 19.208 219.809 19.664C219.089 20.12 218.525 20.72 218.117 21.464C217.733 22.184 217.505 22.976 217.433 23.84ZM241.992 35.216C239.952 35.216 238.488 34.664 237.6 33.56C236.736 32.432 236.304 30.86 236.304 28.844V19.34H233.28V16.028H236.304V10.52H240.012V16.028H245.808V19.34H240.012V28.232C240.012 28.904 240.072 29.516 240.192 30.068C240.336 30.62 240.6 31.052 240.984 31.364C241.368 31.676 241.92 31.844 242.64 31.868C243.192 31.868 243.672 31.772 244.08 31.58C244.512 31.388 244.86 31.172 245.124 30.932L246.564 33.704C246.108 34.064 245.628 34.364 245.124 34.604C244.644 34.82 244.14 34.976 243.612 35.072C243.084 35.168 242.544 35.216 241.992 35.216ZM255.97 35.216C255.082 35.216 254.194 35.132 253.306 34.964C252.418 34.796 251.59 34.496 250.822 34.064C250.054 33.632 249.406 33.056 248.878 32.336C248.35 31.592 248.014 30.68 247.87 29.6H251.65C251.842 30.176 252.178 30.644 252.658 31.004C253.162 31.364 253.714 31.628 254.314 31.796C254.938 31.964 255.55 32.048 256.15 32.048C256.51 32.048 256.906 32.024 257.338 31.976C257.794 31.928 258.226 31.82 258.634 31.652C259.042 31.484 259.378 31.244 259.642 30.932C259.906 30.596 260.038 30.152 260.038 29.6C260.038 29.168 259.918 28.808 259.678 28.52C259.462 28.232 259.15 28.004 258.742 27.836C258.358 27.644 257.89 27.5 257.338 27.404C256.258 27.164 255.094 26.936 253.846 26.72C252.622 26.48 251.542 26.072 250.606 25.496C250.27 25.28 249.97 25.04 249.706 24.776C249.442 24.488 249.214 24.164 249.022 23.804C248.83 23.444 248.686 23.06 248.59 22.652C248.494 22.244 248.446 21.8 248.446 21.32C248.446 20.336 248.638 19.496 249.022 18.8C249.43 18.104 249.982 17.54 250.678 17.108C251.374 16.652 252.166 16.316 253.054 16.1C253.942 15.884 254.878 15.776 255.862 15.776C257.134 15.776 258.286 15.98 259.318 16.388C260.35 16.796 261.202 17.396 261.874 18.188C262.546 18.98 262.942 19.976 263.062 21.176H259.57C259.426 20.528 259.006 20.012 258.31 19.628C257.638 19.22 256.786 19.016 255.754 19.016C255.394 19.016 254.998 19.04 254.566 19.088C254.158 19.136 253.762 19.244 253.378 19.412C252.994 19.58 252.682 19.82 252.442 20.132C252.202 20.42 252.082 20.804 252.082 21.284C252.082 21.74 252.19 22.124 252.406 22.436C252.646 22.748 252.982 23 253.414 23.192C253.87 23.384 254.386 23.54 254.962 23.66C255.778 23.852 256.654 24.032 257.59 24.2C258.55 24.368 259.33 24.548 259.93 24.74C260.722 24.956 261.394 25.268 261.946 25.676C262.522 26.084 262.954 26.6 263.242 27.224C263.554 27.848 263.71 28.604 263.71 29.492C263.71 30.644 263.482 31.592 263.026 32.336C262.57 33.056 261.958 33.632 261.19 34.064C260.446 34.496 259.606 34.796 258.67 34.964C257.758 35.132 256.858 35.216 255.97 35.216Z" fill="white"/>
<defs>
<filter id="filter0_d_28_280" x="6.5" y="10" width="33.6" height="27.6" filterUnits="userSpaceOnUse" color-interpolation-filters="sRGB">
<feFlood flood-opacity="0" result="BackgroundImageFix"/>
<feColorMatrix in="SourceAlpha" type="matrix" values="0 0 0 0 0 0 0 0 0 0 0 0 0 0 0 0 0 0 127 0" result="hardAlpha"/>
<feOffset dx="1.6" dy="1.6"/>
<feComposite in2="hardAlpha" operator="out"/>
<feColorMatrix type="matrix" values="0 0 0 0 1 0 0 0 0 1 0 0 0 0 1 0 0 0 0.25 0"/>
<feBlend mode="normal" in2="BackgroundImageFix" result="effect1_dropShadow_28_280"/>
<feBlend mode="normal" in="SourceGraphic" in2="effect1_dropShadow_28_280" result="shape"/>
</filter>
</defs>
</svg>
